# xmcd
#
# Track frame offsets:
#	150
#	17025
#	27300
#	37950
#	48475
#	66950
#	78900
#	89425
#	101325
#	112247
#	124275
#	135225
#	147150
#	159225
#	171800
#	182670
#	193457
#	203700
#	213975
#	228225
#	240975
#	253382
#	264412
#	280095
#	292875
#
# Disc length: 4068 seconds
#
# Revision: 2
# Processed by: cddbd v1.5.2PL0 Copyright (c) Steve Scherf et al.
# Submitted via: EasyCDDAExtractor 11.1.0.1
#
DISCID=620fe219
DTITLE=Various Artist - The Country Music Story - Volume 4
DYEAR=1989
DGENRE=Country
TTITLE0=Lynn Anderson - Blue Bayou
TTITLE1=Ned Miller - Do What You Do Do Well
TTITLE2=Dolly Parton - Honky Tonk Angels
TTITLE3=Don Williams - There's Always Something There To Remind Me
TTITLE4=Johnny Paycheck - Sunday Morning Comin' Down
TTITLE5=Jack Scott - My True Love
TTITLE6=James Gilreath - Little Band Of Gold
TTITLE7=Skeeter Davis - The End Of The World
TTITLE8=Hank Locklin - Send Me The Pillow You Dream On
TTITLE9=Flatt And Scruggs - Foggy Mountain Breakdown
TTITLE10=George Jones - Tender Years
TTITLE11=Pattie Page - Tennessee Waltz
TTITLE12=Frankie Laine - High Noon
TTITLE13=Porter Wagoner - The Carroll County Accident
TTITLE14=Patsy Cline - Stop The World And Let Me Off
TTITLE15=Jim Lowe - Four Walls
TTITLE16=Skeeter Davis - My Last Date With You
TTITLE17=Faron Young - Hello Walls
TTITLE18=Bobby Helms - My Special Angel
TTITLE19=Bob Lind - Elusive Butterfly
TTITLE20=Patti Page - Mockin' Bird Hill
TTITLE21=Freddy Fender - Since I Met You Baby
TTITLE22=Billie Jo Spears - Blanket On The Ground
TTITLE23=Johnny Tillotson - Only The Lonely
TTITLE24=Jerry Lee Lewis - The Killer
EXTD=
EXTT0=
EXTT1=
EXTT2=
EXTT3=
EXTT4=
EXTT5=
EXTT6=
EXTT7=
EXTT8=
EXTT9=
EXTT10=
EXTT11=
EXTT12=
EXTT13=
EXTT14=
EXTT15=
EXTT16=
EXTT17=
EXTT18=
EXTT19=
EXTT20=
EXTT21=
EXTT22=
EXTT23=
EXTT24=
PLAYORDER=
